:SAMPLES-PER-SECOND 30
:FRAME-RANGE 1-4244
:FULLY-SPECIFIED
:DEGREES
3979
root  85.9706 15.6145 -0.465948 -63.7147 -38.4588 42.2247
RightUpLeg  -83.0099 8.35936 -25.3861
RightLeg  136.92 -8.59285 7.96091
RightFoot  -24.2383 -0.178588 -0.12736
RightToes  -1.33073e-015 0 -3.6325e-017
Spine  39.057 -5.5675 -3.58947
Spine1  7.59268 -9.37459 10.816
HEad  9.98803 -26.7006 6.34647
LeftShoulder1  1.55356 -13.5646 -1.12742
LeftArm  -21.0318 -42.2102 -16.4856
LeftForeArm  36.0654 -2.15928 -9.01378
LeftHand  -0.0858742 1.61126 2.4126
RightShoulder  1.83388 3.58228 20.298
RightArm  -47.4319 13.4497 27.8872
RightForeArm  -30.0106 -3.21864 -10.5207
RightHand  -6.41097 5.79167 -60.6687
LeftUpLeg  -61.3546 14.3152 -13.9233
LeftLeg  111.536 6.12745 -14.4585
LeftFoot  -27.9597 -1.85239 -13.7762
LeftToes  2.72522e-012 8.43823e-011 6.24977e-012
3980
root  86.9243 16.8581 -0.718793 -63.2573 -40.8765 48.1664
RightUpLeg  -81.0341 8.95784 -27.7237
RightLeg  139.459 -7.04733 6.11385
RightFoot  -33.0973 -0.998265 -4.02003
RightToes  -1.33073e-015 0 -3.6325e-017
Spine  39.3362 -5.29971 -1.48028
Spine1  8.54544 -8.59898 10.9416
HEad  5.70388 -25.4579 6.19924
LeftShoulder1  1.52688 -13.158 -1.2032
LeftArm  -21.9627 -37.3593 -14.2066
LeftForeArm  33.9419 -1.46721 -8.34754
LeftHand  -0.100448 1.56154 2.83839
RightShoulder  1.93053 4.48686 18.3178
RightArm  -49.4657 19.1471 26.0649
RightForeArm  -29.595 -3.04869 -11.5319
RightHand  -6.30728 5.65441 -60.4715
LeftUpLeg  -64.7396 14.4416 -17.0991
LeftLeg  106.621 4.42775 -13.7657
LeftFoot  -27.2275 -1.84375 -14.3211
LeftToes  2.72522e-012 8.43823e-011 6.24977e-012
3981
root  87.7073 18.0101 -0.816656 -63.8305 -42.9158 55.7166
RightUpLeg  -80.0388 9.10545 -28.7293
RightLeg  140.723 -0.456497 0.877686
RightFoot  -39.8391 -0.940425 -2.62707
RightToes  -1.33073e-015 0 -3.6325e-017
Spine  39.3834 -4.82253 -0.686978
Spine1  9.38237 -7.20239 9.56465
HEad  2.33027 -22.8229 5.31607
LeftShoulder1  1.58278 -12.2471 -2.2311
LeftArm  -21.6759 -32.4453 -12.9224
LeftForeArm  32.0848 -0.668964 -7.97078
LeftHand  -0.118489 1.58549 3.41305
RightShoulder  2.05214 5.78666 15.9365
RightArm  -52.9092 24.4658 24.3138
RightForeArm  -27.4683 -2.80836 -13.2322
RightHand  -6.11497 5.43594 -59.9259
LeftUpLeg  -68.5359 14.4205 -20.418
LeftLeg  102.436 2.3309 -10.1202
LeftFoot  -27.0636 -1.84772 -14.492
LeftToes  2.72522e-012 8.43823e-011 6.24977e-012
3982
root  88.6017 19.5188 -0.865832 -64.7544 -45.8074 63.4841
RightUpLeg  -79.939 7.94995 -27.4032
RightLeg  136.861 8.31482 -6.66539
RightFoot  -42.1186 -0.782636 -1.79114
RightToes  -1.33073e-015 0 -3.6325e-017
Spine  39.6826 -5.04271 2.29502
Spine1  10.5307 -5.66947 7.56933
HEad  -1.39641 -20.8605 3.98921
LeftShoulder1  1.60827 -11.0499 -3.39815
LeftArm  -20.8399 -28.1413 -13.4316
LeftForeArm  30.0946 0.442057 -7.65872
LeftHand  -0.12966 1.55934 3.73784
RightShoulder  2.10073 7.15614 13.2117
RightArm  -54.5418 28.8179 21.6565
RightForeArm  -27.7806 -2.69189 -13.8161
RightHand  -5.69023 4.83555 -59.1904
LeftUpLeg  -71.9326 13.5273 -22.5093
LeftLeg  96.9931 0.5561 -5.35639
LeftFoot  -26.3371 -1.74182 -14.3694
LeftToes  2.72522e-012 8.43823e-011 6.24977e-012
3983
root  89.2939 21.1015 -0.847336 -66.0101 -47.7581 71.4532
RightUpLeg  -80.3323 4.79492 -26.6152
RightLeg  127.515 11.8321 -13.3916
RightFoot  -41.0997 -0.69287 -1.54545
RightToes  -1.33073e-015 0 -3.6325e-017
Spine  39.9939 -5.31736 4.34672
Spine1  11.0521 -4.20957 5.22165
HEad  -4.39701 -18.5309 2.40166
LeftShoulder1  1.61731 -9.95166 -4.52806
LeftArm  -19.4895 -24.2209 -15.167
LeftForeArm  28.7649 1.31552 -7.55256
LeftHand  -0.115631 1.6991 3.41005
RightShoulder  2.10038 8.352 10.9322
RightArm  -54.951 33.1357 17.9295
RightForeArm  -30.0483 -2.63434 -13.7233
RightHand  -5.28585 4.28853 -58.2758
LeftUpLeg  -74.6035 12.2312 -24.4412
LeftLeg  90.6636 -0.155015 -2.88359
LeftFoot  -24.8291 -1.56051 -14.3896
LeftToes  2.72522e-012 8.43823e-011 6.24977e-012
3984
root  89.8192 22.7012 -0.841134 -67.8158 -48.9908 79.3628
RightUpLeg  -78.3943 1.3446 -26.4475
RightLeg  114.593 8.26209 -15.2856
RightFoot  -45.8052 -0.199535 0.377643
RightToes  -1.33073e-015 0 -3.6325e-017
Spine  40.1805 -5.52353 5.98648
Spine1  11.9466 -2.77858 2.77206
HEad  -8.02037 -17.0218 1.04663
LeftShoulder1  1.74102 -8.98742 -6.74349
LeftArm  -18.1393 -22.4248 -16.9416
LeftForeArm  28.7958 2.32266 -7.73456
LeftHand  -0.104535 1.71476 3.06521
RightShoulder  1.99777 9.11114 8.78235
RightArm  -57.9517 36.9633 14.0172
RightForeArm  -30.2352 -2.34824 -14.6288
RightHand  -4.76384 3.60774 -56.7809
LeftUpLeg  -76.3664 11.6065 -26.2529
LeftLeg  84.1966 -0.404139 -1.7213
LeftFoot  -24.35 -1.51472 -14.4981
LeftToes  2.72522e-012 8.43823e-011 6.24977e-012
3985
root  90.1585 24.14 -0.875991 -69.4296 -50.6402 85.8004
RightUpLeg  -81.2245 -0.565118 -25.8721
RightLeg  108.72 4.66015 -11.2031
RightFoot  -42.9966 -0.947424 -2.2975
RightToes  -1.33073e-015 0 -3.6325e-017
Spine  40.3791 -5.66055 8.14762
Spine1  12.8713 -1.43835 1.47177
HEad  -10.6491 -15.4794 -0.526069
LeftShoulder1  1.836 -8.50994 -8.28903
LeftArm  -15.8318 -21.803 -20.0724
LeftForeArm  30.5273 3.68859 -8.38559
LeftHand  -0.0876742 2.37588 2.95547
RightShoulder  1.77645 9.75256 5.98963
RightArm  -61.7876 39.5572 10.4986
RightForeArm  -30.0483 -1.7416 -15.4172
RightHand  -4.27009 2.99396 -54.9492
LeftUpLeg  -77.5096 11.9656 -26.9427
LeftLeg  78.6417 -0.299817 -0.048971
LeftFoot  -24.3868 -1.55748 -14.8276
LeftToes  2.72522e-012 8.43823e-011 6.24977e-012
3986
root  90.4906 25.4282 -1.01086 -71.3602 -52.2763 91.2392
RightUpLeg  -84.2847 -1.71933 -23.435
RightLeg  103.794 2.66276 -8.15175
RightFoot  -37.0178 -1.38256 -4.95289
RightToes  -1.33073e-015 0 -3.6325e-017
Spine  41.8539 -5.5075 9.48267
Spine1  12.423 -0.535775 1.48307
HEad  -11.7554 -13.8696 -1.42524
LeftShoulder1  1.93031 -7.96274 -10.0682
LeftArm  -13.286 -21.5546 -22.5459
LeftForeArm  35.1646 4.10325 -9.30403
LeftHand  -0.0572767 3.08232 2.11818
RightShoulder  1.58116 10.6176 3.4499
RightArm  -61.6384 41.7018 7.44902
RightForeArm  -33.1045 -1.82018 -15.1438
RightHand  -3.71463 2.22375 -52.9685
LeftUpLeg  -77.8133 13.0126 -26.9498
LeftLeg  73.2619 0.463692 2.88168
LeftFoot  -23.3122 -1.52468 -15.7852
LeftToes  2.72522e-012 8.43823e-011 6.24977e-012
3987
root  90.7772 26.611 -1.24446 -73.893 -52.6223 96.2813
RightUpLeg  -83.6529 -1.59687 -23.0412
RightLeg  97.2201 1.31322 -6.12373
RightFoot  -36.1413 -1.94119 -7.69352
RightToes  -1.33073e-015 0 -3.6325e-017
Spine  43.281 -4.77991 8.3131
Spine1  12.5588 -0.477111 2.46439
HEad  -12.539 -12.3715 -1.07791
LeftShoulder1  2.10477 -7.91553 -11.8764
LeftArm  -11.5559 -21.2022 -24.136
LeftForeArm  37.9413 4.06036 -9.90251
LeftHand  -0.0598596 3.19261 2.33971
RightShoulder  1.39191 11.1228 1.50937
RightArm  -60.5308 45.5765 4.31264
RightForeArm  -35.5704 -2.21671 -14.3931
RightHand  -2.69141 0.562082 -49.6073
LeftUpLeg  -76.7983 13.8093 -27.3192
LeftLeg  68.192 1.6337 5.35898
LeftFoot  -23.3363 -1.64703 -16.8979
LeftToes  2.72522e-012 8.43823e-011 6.24977e-012
3988
root  91.0658 27.5115 -1.4719 -76.3613 -53.64 100.366
RightUpLeg  -83.7906 -0.347752 -21.7022
RightLeg  92.6062 0.718304 -5.16548
RightFoot  -33.0681 -2.0484 -9.4765
RightToes  -1.33073e-015 0 -3.6325e-017
Spine  44.0687 -4.11173 7.55315
Spine1  12.5674 -0.25767 3.05427
HEad  -11.3046 -13.4919 1.6213
LeftShoulder1  2.24676 -8.37747 -12.4003
LeftArm  -10.1301 -21.1297 -26.0719
LeftForeArm  37.6749 4.78033 -10.3829
LeftHand  -0.0699499 3.30158 3.02094
RightShoulder  1.24999 11.5215 0.124834
RightArm  -60.9524 48.0447 3.99242
RightForeArm  -35.3828 -2.278 -14.2803
RightHand  -1.7092 -1.22644 -45.5882
LeftUpLeg  -76.042 14.1202 -25.7687
LeftLeg  67.5838 1.52094 4.88708
LeftFoot  -23.5333 -1.45318 -14.8538
LeftToes  2.72522e-012 8.43823e-011 6.24977e-012
3989
root  91.3871 28.1689 -1.6695 -78.9541 -55.2459 103.267
RightUpLeg  -83.1476 1.64098 -20.2451
RightLeg  89.1048 0.382497 -4.68494
RightFoot  -30.3055 -1.82336 -9.65852
RightToes  -1.33073e-015 0 -3.6325e-017
Spine  44.5681 -3.54209 6.91133
Spine1  12.4596 -0.384808 4.05872
HEad  -9.42565 -15.6155 4.76905
LeftShoulder1  2.3359 -8.45947 -13.0893
LeftArm  -9.84611 -21.5354 -27.3578
LeftForeArm  36.4469 5.02551 -10.4986
LeftHand  -0.0683002 3.60076 3.33739
RightShoulder  1.22134 11.7346 -0.227744
RightArm  -60.5356 50.502 5.29559
RightForeArm  -32.6707 -2.51653 -13.8727
RightHand  -0.710994 -3.41173 -40.6085
LeftUpLeg  -75.0511 13.8047 -22.786
LeftLeg  72.5158 0.920104 4.36446
LeftFoot  -24.3467 -1.40702 -13.5695
LeftToes  2.72522e-012 8.43823e-011 6.24977e-012
3990
root  91.7891 28.7445 -1.90451 -81.9502 -56.7149 105.541
RightUpLeg  -81.3744 3.84921 -18.6814
RightLeg  85.5768 0.0705053 -5.03999
RightFoot  -28.1853 -1.71889 -10.287
RightToes  -1.33073e-015 0 -3.6325e-017
Spine  45.3286 -2.60232 6.18932
Spine1  12.0706 -0.517097 5.64718
HEad  -7.76704 -19.9324 9.51038
LeftShoulder1  2.43279 -8.93264 -13.1149
LeftArm  -9.6858 -23.258 -29.1293
LeftForeArm  36.126 5.99242 -10.557
LeftHand  -0.0746785 3.5102 3.61217
RightShoulder  1.2311 11.3225 0.107017
RightArm  -59.1385 52.6096 7.37551
RightForeArm  -28.3573 -2.81144 -13.0581
RightHand  0.0961782 -5.69795 -33.9037
LeftUpLeg  -73.3218 13.3949 -20.98
LeftLeg  79.9231 0.775853 7.38843
LeftFoot  -24.8407 -1.26752 -11.9319
LeftToes  2.72522e-012 8.43823e-011 6.24977e-012
